<svg width="115" height="21" viewBox="0 0 115 21" fill="none" xmlns="http://www.w3.org/2000/svg">
<path d="M13.8 3.2439L16.169 7.94565L21.4667 8.70424L17.6333 12.362L18.538 17.5294L13.8 15.0884L9.062 17.5294L9.96666 12.362L6.13333 8.70424L11.431 7.94565L13.8 3.2439Z" fill="#1E1D1D" stroke="#1E1D1D" stroke-width="2" stroke-linecap="round" stroke-linejoin="round"/>
<path d="M58.2667 3.2439L60.6357 7.94565L65.9333 8.70424L62.1 12.362L63.0047 17.5294L58.2667 15.0884L53.5287 17.5294L54.4333 12.362L50.6 8.70424L55.8977 7.94565L58.2667 3.2439Z" fill="#1E1D1D" stroke="#1E1D1D" stroke-width="2" stroke-linecap="round" stroke-linejoin="round"/>
<path d="M80.5 3.2439L82.869 7.94565L88.1667 8.70424L84.3333 12.362L85.238 17.5294L80.5 15.0884L75.762 17.5294L76.6667 12.362L72.8333 8.70424L78.131 7.94565L80.5 3.2439Z" fill="#1E1D1D" stroke="#1E1D1D" stroke-width="2" stroke-linecap="round" stroke-linejoin="round"/>
<path d="M102.733 3.2439L105.102 7.94565L110.4 8.70424L106.567 12.362L107.471 17.5294L102.733 15.0884L97.9953 17.5294L98.9 12.362L95.0667 8.70424L100.364 7.94565L102.733 3.2439Z" fill="#1E1D1D" stroke="#1E1D1D" stroke-width="2" stroke-linecap="round" stroke-linejoin="round"/>
<path d="M36.0333 3.2439L38.4023 7.94565L43.7 8.70424L39.8667 12.362L40.7713 17.5294L36.0333 15.0884L31.2953 17.5294L32.2 12.362L28.3667 8.70424L33.6643 7.94565L36.0333 3.2439Z" fill="#1E1D1D" stroke="#1E1D1D" stroke-width="2" stroke-linecap="round" stroke-linejoin="round"/>
</svg>
